<?xml version="1.0" standalone="no"?>
<!DOCTYPE svg PUBLIC "-//W3C//DTD SVG 20010904//EN"
 "http://www.w3.org/TR/2001/REC-SVG-20010904/DTD/svg10.dtd">
<svg version="1.0" xmlns="http://www.w3.org/2000/svg"
 width="512.000000pt" height="512.000000pt" viewBox="0 0 512.000000 512.000000"
 preserveAspectRatio="xMidYMid meet">
<metadata>
Created by potrace 1.14, written by Peter Selinger 2001-2017
</metadata>
<g transform="translate(0.000000,512.000000) scale(0.100000,-0.100000)"
fill="#000000" stroke="none">
<path d="M843 4625 c-167 -45 -303 -180 -347 -346 -22 -82 -23 -3348 -1 -3432
45 -171 177 -306 346 -351 84 -23 3348 -23 3434 -1 164 43 286 157 339 317
l25 73 -2 1690 c-2 1854 2 1712 -63 1825 -62 107 -173 191 -295 224 -80 22
-3357 22 -3436 1z m839 -810 c71 -48 73 -55 73 -296 l0 -216 -28 -36 c-46 -60
-75 -67 -281 -67 -195 0 -228 5 -271 41 -49 42 -55 72 -55 271 0 195 6 237 42
276 44 47 69 52 284 51 195 0 203 -1 236 -24z m2244 -161 c52 -38 68 -70 69
-133 0 -48 -5 -64 -29 -95 -52 -69 -7 -66 -926 -66 -679 0 -837 2 -863 14
-100 41 -127 184 -49 259 15 14 38 30 52 36 16 6 332 9 872 8 838 -2 847 -2
874 -23z m-2240 -800 c68 -51 69 -54 69 -293 l0 -218 -29 -37 c-45 -60 -71
-66 -278 -66 -197 0 -230 5 -273 41 -49 42 -55 72 -55 271 0 195 6 237 42 276
45 48 67 52 290 49 191 -2 209 -4 234 -23z m2217 -148 c74 -31 115 -127 86
-203 -8 -20 -31 -50 -52 -67 l-39 -31 -821 -3 c-452 -2 -841 0 -865 3 -62 9
-118 64 -127 127 -12 79 22 143 93 174 42 19 1680 19 1725 0z m-2221 -811 c71
-48 73 -55 73 -296 l0 -216 -28 -36 c-46 -60 -75 -67 -281 -67 -195 0 -228 5
-271 41 -49 42 -55 72 -55 271 0 195 6 237 42 276 44 47 69 52 284 51 195 0
203 -1 236 -24z m2244 -161 c44 -32 66 -68 71 -116 7 -58 -15 -108 -63 -144
l-37 -29 -836 -3 c-571 -2 -848 0 -873 8 -77 22 -125 122 -99 203 13 38 53 81
91 96 16 6 330 9 872 8 838 -2 847 -2 874 -23z"/>
</g>
</svg>
